<?xml version="1.0" encoding="UTF-8"?>
<svg width="128px" height="31px" viewBox="0 0 128 31" version="1.1" xmlns="http://www.w3.org/2000/svg" xmlns:xlink="http://www.w3.org/1999/xlink">
    <!-- Generator: Sketch 42 (36781) - http://www.bohemiancoding.com/sketch -->
    <title>CBSL-Logo-Col</title>
    <desc>Created with Sketch.</desc>
    <defs></defs>
    <g id="Page-1" stroke="none" stroke-width="1" fill="none" fill-rule="evenodd">
        <g id="01-Login-Simple" transform="translate(-657.000000, -912.000000)">
            <g id="CBSL-Logo-Col" transform="translate(657.000000, 912.000000)">
                <g id="Group-2">
                    <path d="M41.8457121,15.3278426 C41.7879232,12.956507 39.7778553,10.9670091 37.3819519,10.9098347 C36.624583,10.8917576 35.8674896,10.8917576 35.1100754,10.9098347 C35.1069207,10.9099243 35.1037433,10.9102231 35.1005622,10.9103127 C35.1524303,8.74065636 35.1132075,6.57247901 34.9783089,4.40031648 C34.8410593,2.19065142 32.9111426,0.280483706 30.6785833,0.144640212 C27.5084959,-0.0482395471 24.3469783,-0.0481947278 21.1769173,0.144662622 C18.9443617,0.280483706 17.0144224,2.19067383 16.8771955,4.4003613 C16.8436595,4.94019828 16.8180254,5.4797178 16.7960518,6.01917009 C16.4852544,5.93938431 16.1635173,5.89135298 15.8343425,5.88173178 C14.9145956,5.85485515 13.9953129,5.85367118 13.0755208,5.8781313 C11.1810042,5.9285119 9.51777907,7.21155334 8.89705975,8.92348539 C7.41433719,8.87144274 5.93285991,8.8725819 4.44965433,8.9331066 C2.13072484,9.02770889 0.157577788,10.9754874 0.0558641978,13.27041 C-0.0163662628,14.8994749 -0.0185511767,16.5265603 0.0492981353,18.1558307 C0.144883401,20.4510483 2.11282289,22.4039586 4.43149954,22.5046526 C5.00887153,22.529729 5.58591898,22.5431337 6.16294757,22.5511564 C6.18201934,23.8680065 6.23317425,25.1852189 6.3182991,26.5039626 C6.45932604,28.6885737 8.38389933,30.5934527 10.5911454,30.7330349 C14.0263772,30.9502366 17.4515221,30.9502366 20.8867539,30.7330125 C23.0939774,30.5934303 25.0185733,28.6885513 25.1595964,26.5039626 C25.1703059,26.3375486 25.1780909,26.1712729 25.1877664,26.0049299 C25.6976324,26.2349909 26.2522911,26.3740241 26.8286291,26.3985514 C28.5025185,26.4697879 30.1742417,26.4697879 31.8481575,26.398529 C34.1669738,26.2998444 36.1364114,24.350557 36.23614,22.0555672 C36.2368306,22.0396564 36.2369929,22.0237903 36.2376834,22.0079019 C36.6191188,22.0079691 37.0004863,22.003547 37.3819934,21.99443 C39.7778515,21.9372331 41.7879194,19.9477577 41.8457083,17.5764444 C41.8639537,16.8268084 41.863999,16.0774973 41.8457121,15.3278426 L41.8457121,15.3278426 Z" id="Shape-Copy" fill="#5FA3E0"></path>
                    <g id="Group">
                        <path d="M13.4931225,11.954784 C14.590987,11.9244339 15.6884591,11.9159443 16.7861085,11.9300886 C16.7124025,9.95921313 16.7157044,7.99023133 16.7960557,6.01916169 C16.4852583,5.93937964 16.1635175,5.89134084 15.8343502,5.88173458 C14.9145958,5.85484675 13.9953244,5.85366277 13.0755285,5.87812289 C11.1809968,5.92850349 9.517783,7.21154867 8.89705991,8.92347325 C9.05992845,8.92919145 9.2227517,8.93247819 9.38566553,8.93955217 C11.2368914,9.01993181 12.8634069,10.28146 13.4931225,11.954784 L13.4931225,11.954784 Z" id="Shape" fill="#1A7BD3"></path>
                        <path d="M6.31834832,16.3138247 C6.41480906,14.8191989 7.34637483,13.4558525 8.63190797,12.6988363 C8.61470791,11.8849033 8.61501357,11.0712541 8.6392929,10.2572987 C8.65310428,9.79442012 8.74383292,9.34606675 8.89705991,8.92346578 C7.41434867,8.8714306 5.93285253,8.87256976 4.44966204,8.93309446 C2.13071746,9.02770795 0.157574178,10.975479 0.0558568141,13.2704053 C-0.016369873,14.8994702 -0.0185396924,16.5265594 0.0492982988,18.1558223 C0.144891112,20.4510361 2.11281928,22.4039614 4.43150348,22.5046367 C5.00888301,22.5297206 5.58591537,22.5431328 6.16294773,22.551148 C6.132808,20.4727436 6.18397045,18.3951535 6.31834832,16.3138247 L6.31834832,16.3138247 Z" id="Shape" fill="#525B78"></path>
                        <path d="M8.63190797,12.6988363 C9.22535926,12.3493766 9.8940297,12.1288546 10.5911531,12.0847487 C11.5591567,12.0235367 12.5262924,11.9814963 13.4931263,11.9547802 C12.8634107,10.28146 11.2368951,9.01992807 9.38566553,8.9395447 C9.2227517,8.93247446 9.05992845,8.92918398 8.89705991,8.92346578 C8.74383292,9.34606675 8.65310428,9.79442012 8.6392929,10.2572987 C8.61501357,11.0712541 8.61470791,11.884907 8.63190797,12.6988363 L8.63190797,12.6988363 Z" id="Shape" fill="#263256"></path>
                        <path d="M41.8457236,15.327838 C41.7879158,12.9564986 39.7778554,10.9670119 37.3819483,10.9098375 C36.6245869,10.8917417 35.867486,10.8917417 35.1100831,10.9098375 C35.1069133,10.9099234 35.1037435,10.9102259 35.1005699,10.9103118 C35.0775094,11.8746322 35.0382489,12.8392102 34.9783128,13.8046473 C34.9708864,13.9240422 34.9572486,14.0423651 34.9396146,14.1597617 C35.696757,14.9390681 36.1876683,15.9719955 36.2361364,17.0873681 C36.3074537,18.7282541 36.3076273,20.3670373 36.2376987,22.0078823 C36.6191152,22.0079682 37.0004903,22.0035423 37.3819936,21.994429 C39.7778554,21.9372359 41.787912,19.9477455 41.8457198,17.5764286 C41.8639652,16.8268075 41.8640067,16.0774852 41.8457236,15.327838 L41.8457236,15.327838 Z" id="Shape" fill="#19A2FF"></path>
                        <path d="M36.2361364,17.0873681 C36.1876683,15.9719955 35.6967608,14.9390681 34.9396146,14.1597617 C34.6309908,16.2128282 32.7950065,17.9274158 30.686357,18.0596439 C30.6837495,18.0598157 30.6811872,18.0601593 30.6785381,18.0603311 C28.869437,18.1703773 27.0630717,18.2154058 25.2563177,18.1998647 C25.3622879,20.802169 25.3394879,23.4009961 25.1877816,26.004914 C25.6976213,26.2349788 26.2522913,26.3740194 26.8286255,26.398543 C28.5025224,26.469772 30.1742532,26.469772 31.8481501,26.3985243 C34.1669664,26.2998472 36.1364153,24.3505523 36.2361327,22.0555588 C36.2368308,22.0396554 36.2370006,22.0237931 36.2376949,22.007886 C36.3076235,20.3670411 36.3074537,18.7282578 36.2361364,17.0873681 L36.2361364,17.0873681 Z" id="Shape" fill="#1A7BD3"></path>
                        <path d="M20.2588574,10.2725186 C20.2749254,10.8653469 20.2759254,11.4579623 20.2700197,12.0506001 C20.4756243,12.0620552 20.681142,12.0717287 20.8867918,12.0847524 C22.1570796,12.1650723 23.3329029,12.8307431 24.1298758,13.7972559 C24.8805918,13.179538 25.8214934,12.787261 26.828584,12.7443839 C28.4114089,12.6770242 29.9922752,12.6756498 31.5748359,12.735659 C32.3954767,11.6635707 33.6797079,10.9473064 35.1005699,10.9103155 C35.1524267,8.74064795 35.1132077,6.57248554 34.9783128,4.40030434 C34.841067,2.19063928 32.911139,0.280482771 30.6785797,0.144643012 C27.5085036,-0.048236747 24.346986,-0.0481956627 21.1769137,0.144665422 C18.9443543,0.280482771 17.0144263,2.19068036 16.8771805,4.40036783 C16.8436521,4.94019361 16.8180256,5.4797206 16.7960519,6.01916169 C18.7155573,6.5117853 20.2042195,8.2603347 20.2588574,10.2725186 L20.2588574,10.2725186 Z" id="Shape" fill="#525B78"></path>
                        <path d="M16.7861085,11.9300848 C17.9469053,11.9450433 19.108004,11.9858811 20.2700197,12.0505964 C20.2759254,11.4579623 20.2749254,10.8653469 20.2588574,10.2725148 C20.2042195,8.26033096 18.7155573,6.51178157 16.7960519,6.01915422 C16.7157044,7.99022759 16.7124025,9.9592094 16.7861085,11.9300848 L16.7861085,11.9300848 Z" id="Shape" fill="#263256"></path>
                        <path d="M31.5748359,12.7356553 C31.6659532,12.7391139 31.7570328,12.7405107 31.8481954,12.7443801 C33.0400452,12.7951043 34.1387776,13.3355314 34.9396146,14.1597617 C34.9572486,14.0423651 34.9708864,13.9240459 34.9783128,13.8046473 C35.0382489,12.8392102 35.0775094,11.8746322 35.1005699,10.9103118 C33.6797079,10.9473027 32.3954767,11.663567 31.5748359,12.7356553 L31.5748359,12.7356553 Z" id="Shape" fill="#3C4667"></path>
                        <path d="M31.8481954,12.7443839 C31.7570328,12.7405145 31.665957,12.7391176 31.5748359,12.735659 C29.9922752,12.6756498 28.4114051,12.6770242 26.828584,12.7443839 C25.8214897,12.7872647 24.8805918,13.179538 24.1298758,13.7972559 C24.717678,14.5101476 25.0997473,15.3864504 25.1595966,16.3137799 C25.2002043,16.9428035 25.2307365,17.5713976 25.2563215,18.1998647 C27.0630755,18.2154058 28.8694408,18.1703773 30.6785419,18.0603311 C30.681191,18.0601593 30.6837533,18.0598157 30.6863608,18.0596439 C32.7950103,17.9274158 34.6309945,16.2128282 34.9396183,14.1597617 C34.1387776,13.3355352 33.0400452,12.7951081 31.8481954,12.7443839 L31.8481954,12.7443839 Z" id="Shape" fill="#263256"></path>
                        <path d="M22.4406468,22.055514 C22.3837069,20.744763 22.3736767,19.4353902 22.4068579,18.1251995 C21.9969923,18.1067153 21.5870435,18.0853066 21.1769175,18.0603311 C20.0246339,17.9902636 18.9537393,17.4467365 18.1675854,16.6341182 C17.4811903,17.0848769 16.6738439,17.3594771 15.818935,17.3822154 C15.1417061,17.4002253 14.4647375,17.3995381 13.7876821,17.3897152 C13.7796896,17.6510527 13.772916,17.9123677 13.7613197,18.1738135 C13.6596024,20.4687435 11.6864591,22.4164922 9.36751451,22.5110833 C8.29879351,22.5547148 7.23098194,22.5659757 6.16295528,22.551148 C6.18202328,23.8680018 6.23318573,25.1852217 6.31831058,26.5039467 C6.45933375,28.6885728 8.38391836,30.5934443 10.5911569,30.733019 C14.0263811,30.9502319 17.4515299,30.9502319 20.8867541,30.7330004 C23.0939926,30.5934219 25.0185772,28.6885504 25.1596004,26.5039505 C25.1703287,26.3375477 25.1781023,26.1712757 25.1877892,26.0049177 C23.6463947,25.3093263 22.515564,23.7801187 22.4406468,22.055514 L22.4406468,22.055514 Z" id="Shape" fill="#19A2FF"></path>
                        <path d="M16.7861085,11.9300848 C15.6884591,11.9159406 14.590987,11.9244339 13.4931225,11.9547802 C13.6521269,12.3772953 13.7486291,12.8256263 13.7678707,13.288333 C13.8248521,14.6561688 13.8294558,16.0224994 13.7876746,17.3897114 C14.4647299,17.3995343 15.1416985,17.4002216 15.8189275,17.3822117 C16.6738364,17.3594696 17.4811866,17.0848731 18.1675778,16.6341145 C17.4304996,15.8722204 16.943543,14.8738523 16.8771805,13.8046436 C16.8383577,13.1794931 16.8094293,12.5547273 16.7861085,11.9300848 L16.7861085,11.9300848 Z" id="Shape" fill="#8CD0FF"></path>
                        <path d="M9.36750697,22.511087 C11.6864515,22.4164922 13.6595948,20.4687472 13.7613122,18.1738172 C13.7729085,17.9123714 13.7796821,17.6510564 13.7876746,17.3897189 C13.5451944,17.3862155 13.3026727,17.3857001 13.0601511,17.3786075 C10.6981195,17.3096157 8.69909313,15.3258435 8.63564006,12.9878198 C8.63299099,12.8914882 8.63394571,12.7951753 8.6319042,12.69884 C7.34637106,13.4558563 6.41480528,14.8192027 6.31834454,16.3138284 C6.18396668,18.3951572 6.13280422,20.4727473 6.16294773,22.5511517 C7.23097817,22.5659794 8.29878596,22.5547186 9.36750697,22.511087 L9.36750697,22.511087 Z" id="Shape" fill="#8CD0FF"></path>
                        <path d="M13.7678707,13.2883367 C13.7486291,12.82563 13.6521269,12.377299 13.4931225,11.954784 C12.5262887,11.9815 11.5591567,12.0235405 10.5911493,12.0847524 C9.8940297,12.1288546 9.22535549,12.3493804 8.6319042,12.69884 C8.63394571,12.7951716 8.63299099,12.8914845 8.63564006,12.9878198 C8.69909313,15.3258435 10.6981195,17.3096157 13.0601511,17.3786075 C13.3026727,17.3857001 13.5451944,17.3862155 13.7876746,17.3897189 C13.8294558,16.0225031 13.8248521,14.6561725 13.7678707,13.2883367 L13.7678707,13.2883367 Z" id="Shape" fill="#5FA3E0"></path>
                        <path d="M25.2563177,18.1998647 C24.3067708,18.191674 23.3570955,18.1680542 22.4068542,18.1251958 C22.3736729,19.4353865 22.3837031,20.744763 22.440643,22.0555102 C22.515564,23.7801149 23.6463909,25.3093225 25.1877816,26.0049102 C25.3394879,23.4009961 25.3622917,20.8021728 25.2563177,18.1998647 L25.2563177,18.1998647 Z" id="Shape" fill="#8CD0FF"></path>
                        <path d="M25.1595966,16.3137799 C25.0997473,15.3864504 24.7176817,14.5101439 24.1298758,13.7972559 C23.3329067,12.8307431 22.1570796,12.1650723 20.8867918,12.0847524 C20.681142,12.0717287 20.4756243,12.0620552 20.2700197,12.0506001 C19.108004,11.9858848 17.9469053,11.945047 16.7861085,11.9300886 C16.8094293,12.5547273 16.838354,13.1794969 16.8771843,13.8046511 C16.9435506,14.8738598 17.4305034,15.8722241 18.1675816,16.6341219 C18.9537393,17.4467402 20.0246301,17.9902673 21.1769137,18.0603348 C21.5870398,18.0853104 21.9969885,18.1067153 22.4068542,18.1252033 C23.3570955,18.1680617 24.3067708,18.1916814 25.2563177,18.1998722 C25.2307365,17.5714013 25.2002043,16.9428072 25.1595966,16.3137799 L25.1595966,16.3137799 Z" id="Shape" fill="#5FA3E0"></path>
                    </g>
                    <path d="M55.8605311,18.2640011 L56.5327034,20.2956029 C55.9876674,20.7270893 54.952139,21.302651 53.5713111,21.302651 C50.6102887,21.302651 48.5027487,19.2528114 48.5027487,16.3939765 C48.5027487,13.5351416 50.6648285,11.431321 53.5532545,11.431321 C54.952139,11.431321 55.9331276,11.9707733 56.5507601,12.438369 L55.8421046,14.5239519 C55.4245747,14.1464466 54.6978625,13.624866 53.625851,13.624866 C52.0091732,13.624866 51.0097581,14.8657139 51.0097581,16.3761011 C51.0097581,17.9762165 52.1363095,19.1090984 53.7168739,19.1090984 C54.6794361,19.1091059 55.4426314,18.605397 55.8605311,18.2640011 Z M57.3677594,8.06878458 L59.8747688,8.06878458 L59.8747688,21.0688549 L57.3677594,21.0688549 L57.3677594,8.06878458 Z M65.8697801,11.4313247 C68.7762627,11.4313247 70.9928824,13.553017 70.9928824,16.3939802 C70.9928824,19.2349435 68.849229,21.3026547 65.8697801,21.3026547 C62.9083878,21.3026547 60.7647344,19.2349435 60.7647344,16.3939802 C60.7647344,13.5351453 62.9813541,11.4313247 65.8697801,11.4313247 Z M65.8697801,19.1091059 C67.3773782,19.1091059 68.4858729,17.9940957 68.4858729,16.3939802 C68.4858729,14.7934988 67.3773782,13.6248735 65.8697801,13.6248735 C64.3618159,13.6248735 63.2717439,14.7756271 63.2717439,16.3939802 C63.2717439,17.9940919 64.3798726,19.1091059 65.8697801,19.1091059 Z M71.7914552,17.0950098 L71.7914552,11.6651207 L74.2984646,11.6651207 L74.2984646,17.3827869 C74.2984646,18.4255783 75.0251768,19.0729928 75.8790291,19.0729928 C76.9145575,19.0729928 77.5683034,18.3179822 77.5683034,17.3109341 L77.5683034,11.6651207 L80.0753128,11.6651207 L80.0753128,21.0688512 L77.6228432,21.0688512 L77.6228432,19.9720787 C77.2233738,20.6194931 76.3149817,21.302651 75.0797166,21.302651 C72.3726046,21.302651 71.7914552,19.0908682 71.7914552,17.0950098 Z M90.7029377,21.0688549 L88.3411213,21.0688549 L88.3411213,20.0979163 C88.0868449,20.4035688 87.1423394,21.3026547 85.5252956,21.3026547 C82.8004929,21.3026547 80.874629,19.2706869 80.874629,16.3761086 C80.874629,13.4629302 82.6552961,11.4313247 85.3800988,11.4313247 C87.0152031,11.4313247 87.9597085,12.3304106 88.1959245,12.6539348 L88.1959245,5.72155795 L90.7029339,5.72155795 L90.7029339,21.0688549 L90.7029377,21.0688549 Z M85.8341081,13.6248698 C84.3810498,13.6248698 83.4000612,14.7577517 83.4000612,16.3939765 C83.4000612,18.0659447 84.4171631,19.1091022 85.8341081,19.1091022 C87.3601327,19.1091022 88.268521,17.8861298 88.268521,16.3939765 C88.2685248,14.6319178 87.2149359,13.6248698 85.8341081,13.6248698 Z M92.1010864,5.72155795 L94.6080958,5.72155795 L94.6080958,12.6539311 C94.8443156,12.3304069 95.788821,11.431321 97.4239215,11.431321 C100.149094,11.431321 101.929391,13.4629228 101.929391,16.3761048 C101.929391,19.2706831 100.003527,21.302651 97.2787247,21.302651 C95.6616771,21.302651 94.7171717,20.4035651 94.462899,20.0979125 L94.462899,21.0688512 L92.1010826,21.0688512 L92.1010826,5.72155795 L92.1010864,5.72155795 Z M96.9699123,19.1091059 C98.3868534,19.1091059 99.4039592,18.0659484 99.4039592,16.3939802 C99.4039592,14.7577554 98.4229706,13.6248735 96.9699123,13.6248735 C95.5890844,13.6248735 94.5354993,14.6319216 94.5354993,16.3939802 C94.5354993,17.8861298 95.4438876,19.1091059 96.9699123,19.1091059 Z M105.943633,15.0455325 C106.906565,15.0455325 107.651334,15.3329473 107.996633,15.5667471 L107.996633,14.955442 C107.996633,14.1282127 107.379001,13.5708887 106.270876,13.5708887 C105.326,13.5708887 104.454095,13.8765412 103.74544,14.2361748 L102.800934,12.5459689 C103.654786,11.9707733 105.089784,11.431321 106.543209,11.431321 C109.595254,11.431321 110.503646,13.0135647 110.503646,15.1173853 L110.503646,21.0688512 L108.287393,21.0688512 L108.123773,20.4575461 C107.633281,20.979123 106.906565,21.302651 105.816497,21.302651 C103.891002,21.302651 102.255898,20.1340219 102.255898,18.1560389 C102.255898,16.303886 103.727383,15.0455325 105.943633,15.0455325 Z M106.416072,19.378649 C107.360948,19.378649 108.051177,18.8753061 108.051177,18.0841861 C108.051177,17.2569567 107.360948,16.7714855 106.398016,16.7714855 C105.435084,16.7714855 104.762911,17.3109378 104.762911,18.0841861 C104.762911,18.8570684 105.471567,19.378649 106.416072,19.378649 Z M111.157392,19.558464 L112.628873,18.2640011 C113.100943,18.8034534 113.736998,19.2889208 114.808644,19.2889208 C115.517299,19.2889208 115.971308,18.9832683 115.971308,18.443816 C115.971308,17.0052816 111.484265,17.5626018 111.484265,14.2182994 C111.484265,12.4741124 112.992229,11.431321 114.93578,11.431321 C116.734504,11.431321 117.733549,12.3661502 118.187928,13.1032892 L116.534767,14.3262616 C116.244007,13.966628 115.717032,13.4271757 114.827066,13.4271757 C114.245547,13.4271757 113.846078,13.7149565 113.846078,14.1821863 C113.846078,15.6747018 118.351181,14.9554346 118.351181,18.3179747 C118.351181,20.1518899 116.75256,21.3026435 114.69993,21.3026435 C112.82861,21.302651 111.665945,20.3674594 111.157392,19.558464 Z M123.274181,11.4313247 C126.217147,11.4313247 127.888365,13.373202 127.888365,16.4479613 C127.888365,16.62778 127.888365,16.8075949 127.870308,16.9874136 L121.185068,16.9874136 C121.239238,18.2457671 122.256709,19.144853 123.655598,19.144853 C124.945402,19.144853 125.690171,18.3898424 125.962874,17.9940994 L127.616031,19.2349398 C127.252675,19.9002259 125.980927,21.302651 123.619111,21.302651 C120.567065,21.302651 118.623515,19.216702 118.623515,16.3939765 C118.623518,13.553017 120.567069,11.4313247 123.274181,11.4313247 Z M125.345242,15.3690567 C125.290702,14.2183031 124.454906,13.4629228 123.310298,13.4629228 C122.129573,13.4629228 121.366748,14.2901522 121.257668,15.3690567 L125.345242,15.3690567 Z M96.4374084,9.21844386 L97.0871014,8.64689723 C97.2953135,8.88507434 97.5761221,9.09917602 98.0492937,9.09917602 C98.3621628,9.09917602 98.5626352,8.96422145 98.5626352,8.72604807 C98.5626352,8.09103361 96.5814957,8.33723337 96.5814957,6.86040084 C96.5814957,6.09043554 97.2474039,5.63013036 98.105675,5.63013036 C98.8998252,5.63013036 99.3409401,6.04265072 99.5414125,6.36836361 L98.8113833,6.90817819 C98.6831414,6.74951795 98.4506084,6.51134084 98.0573994,6.51134084 C97.8009116,6.51134084 97.624394,6.63826904 97.624394,6.8447141 C97.624394,7.50343422 99.6136392,7.18611 99.6136392,8.67060289 C99.6136392,9.48032663 98.9075648,9.98840916 98.0013841,9.98840916 C97.1751734,9.98840916 96.6618319,9.57552651 96.4374084,9.21844386 Z M102.067588,5.63013036 C103.351129,5.63013036 104.329536,6.56678229 104.329536,7.82112446 C104.329536,9.07546663 103.383189,9.98840916 102.067588,9.98840916 C100.760096,9.98840916 99.8137456,9.07546289 99.8137456,7.82112446 C99.8137456,6.55875964 100.792523,5.63013036 102.067588,5.63013036 Z M102.067588,9.02002518 C102.733496,9.02002518 103.222883,8.52762566 103.222883,7.82112446 C103.222883,7.11462325 102.733492,6.59851434 102.067588,6.59851434 C101.40205,6.59851434 100.920769,7.10659687 100.920769,7.82112446 C100.920769,8.52762566 101.409786,9.02002518 102.067588,9.02002518 Z M104.802342,4.14527145 L105.909361,4.14527145 L105.909361,9.88519036 L104.802342,9.88519036 L104.802342,4.14527145 Z M106.590748,8.13078831 L106.590748,5.73334916 L107.697768,5.73334916 L107.697768,8.25771651 C107.697768,8.71801795 108.018746,9.00397614 108.395736,9.00397614 C108.852697,9.00397614 109.141611,8.67060289 109.141611,8.22598446 L109.141611,5.73334916 L110.248264,5.73334916 L110.248264,9.88519036 L109.165566,9.88519036 L109.165566,9.40081349 C108.989048,9.68676795 108.588103,9.98840916 108.042697,9.98840916 C106.847602,9.98840916 106.590748,9.01200253 106.590748,8.13078831 Z M111.026199,4.85979904 L112.117003,4.85979904 L112.117003,5.73335289 L112.903048,5.73335289 L112.903048,6.62222373 L112.117003,6.62222373 L112.117003,8.22598819 C112.117003,8.8453159 112.309736,8.97224783 112.734636,8.97224783 C112.806866,8.97224783 112.847032,8.97224783 112.935478,8.96422518 L112.935478,9.90124313 C112.935478,9.90124313 112.766696,9.94063554 112.461937,9.94063554 C111.459574,9.94063554 111.018459,9.38513795 111.018459,8.25772398 L111.018459,6.62222747 L110.576979,6.62222747 L110.576979,5.73335663 L111.026199,5.73335663 L111.026199,4.85979904 L111.026199,4.85979904 Z M113.97764,4.10587904 C114.346895,4.10587904 114.627333,4.37578819 114.627333,4.73286711 C114.627333,5.09031205 114.346895,5.3602212 113.97764,5.3602212 C113.616866,5.3602212 113.336053,5.09031205 113.336053,4.73286711 C113.336057,4.37578819 113.616866,4.10587904 113.97764,4.10587904 Z M113.432238,5.73335289 L114.539258,5.73335289 L114.539258,9.88519036 L113.432238,9.88519036 L113.432238,5.73335289 Z M117.274011,5.63013036 C118.557552,5.63013036 119.535959,6.56678229 119.535959,7.82112446 C119.535959,9.07546663 118.589613,9.98840916 117.274011,9.98840916 C115.96652,9.98840916 115.020169,9.07546289 115.020169,7.82112446 C115.020173,6.55875964 115.99895,5.63013036 117.274011,5.63013036 Z M117.274011,9.02002518 C117.93992,9.02002518 118.429306,8.52762566 118.429306,7.82112446 C118.429306,7.11462325 117.939916,6.59851434 117.274011,6.59851434 C116.608473,6.59851434 116.127192,7.10659687 116.127192,7.82112446 C116.127192,8.52762566 116.616213,9.02002518 117.274011,9.02002518 Z M123.666284,7.4877512 L123.666284,9.88519036 L122.559631,9.88519036 L122.559631,7.36082301 C122.559631,6.90015554 122.238653,6.61456337 121.861663,6.61456337 C121.404702,6.61456337 121.115788,6.94793663 121.115788,7.39255506 L121.115788,9.88519036 L120.008769,9.88519036 L120.008769,5.73335289 L121.091837,5.73335289 L121.091837,6.21736373 C121.268355,5.93177157 121.6693,5.63013036 122.214705,5.63013036 C123.409797,5.63013036 123.666284,6.60654072 123.666284,7.4877512 Z M124.05949,9.21844386 L124.709183,8.64689723 C124.917395,8.88507434 125.198203,9.09917602 125.671375,9.09917602 C125.984244,9.09917602 126.184717,8.96422145 126.184717,8.72604807 C126.184717,8.09103361 124.203577,8.33723337 124.203577,6.86040084 C124.203577,6.09043554 124.869485,5.63013036 125.727756,5.63013036 C126.521907,5.63013036 126.963021,6.04265072 127.163494,6.36836361 L126.433465,6.90817819 C126.305223,6.74951795 126.07269,6.51134084 125.679481,6.51134084 C125.422993,6.51134084 125.246475,6.63826904 125.246475,6.8447141 C125.246475,7.50343422 127.235721,7.18611 127.235721,8.67060289 C127.235721,9.48032663 126.529646,9.98840916 125.623465,9.98840916 C124.797259,9.98840916 124.283917,9.57552651 124.05949,9.21844386 Z" id="Combined-Shape" fill="#171725"></path>
                </g>
            </g>
        </g>
    </g>
</svg>